<svg width="284" height="20" viewBox="0 0 284 20" fill="none" xmlns="http://www.w3.org/2000/svg">
<path d="M0 0H284V20H0V0Z" stroke="#E5E7EB"/>
<path d="M0 0H20V20H0V0Z" stroke="#E5E7EB"/>
<g clip-path="url(#clip0_11_316)">
<path d="M0 0H20V20H0V0Z" stroke="#E5E7EB"/>
<path d="M17.9441 5.92662C17.9568 6.10428 17.9568 6.28197 17.9568 6.45963C17.9568 11.8784 13.8325 18.1221 6.29441 18.1221C3.97207 18.1221 1.81473 17.4494 0 16.282C0.329961 16.32 0.647187 16.3327 0.989844 16.3327C2.90605 16.3327 4.67004 15.6855 6.07867 14.5815C4.27664 14.5434 2.76648 13.3632 2.24617 11.7388C2.5 11.7769 2.75379 11.8022 3.02031 11.8022C3.38832 11.8022 3.75637 11.7515 4.09898 11.6627C2.22082 11.2819 0.812148 9.63221 0.812148 7.63982V7.58908C1.35781 7.89365 1.99238 8.084 2.66492 8.10936C1.56086 7.3733 0.837539 6.11697 0.837539 4.69564C0.837539 3.93424 1.04055 3.23627 1.3959 2.62713C3.41367 5.11443 6.44668 6.73877 9.84766 6.91646C9.78422 6.61189 9.74613 6.29467 9.74613 5.9774C9.74613 3.7185 11.5736 1.87842 13.8451 1.87842C15.0253 1.87842 16.0913 2.37334 16.84 3.17283C17.7664 2.99518 18.6547 2.65252 19.4416 2.18299C19.137 3.13479 18.4898 3.93428 17.6395 4.44186C18.4644 4.35307 19.2639 4.12459 19.9999 3.80736C19.4416 4.61951 18.7436 5.34283 17.9441 5.92662Z" fill="#9CA3AF"/>
</g>
<path d="M36 0H53.5V20H36V0Z" stroke="#E5E7EB"/>
<g clip-path="url(#clip1_11_316)">
<g clip-path="url(#clip2_11_316)">
<path d="M44.7539 5.50781C42.2695 5.50781 40.2656 7.51172 40.2656 9.99609C40.2656 12.4805 42.2695 14.4844 44.7539 14.4844C47.2383 14.4844 49.2422 12.4805 49.2422 9.99609C49.2422 7.51172 47.2383 5.50781 44.7539 5.50781ZM44.7539 12.9141C43.1484 12.9141 41.8359 11.6055 41.8359 9.99609C41.8359 8.38672 43.1445 7.07812 44.7539 7.07812C46.3633 7.07812 47.6719 8.38672 47.6719 9.99609C47.6719 11.6055 46.3594 12.9141 44.7539 12.9141ZM50.4727 5.32422C50.4727 5.90625 50.0039 6.37109 49.4258 6.37109C48.8438 6.37109 48.3789 5.90234 48.3789 5.32422C48.3789 4.74609 48.8477 4.27734 49.4258 4.27734C50.0039 4.27734 50.4727 4.74609 50.4727 5.32422ZM53.4453 6.38672C53.3789 4.98438 53.0586 3.74219 52.0313 2.71875C51.0078 1.69531 49.7656 1.375 48.3633 1.30469C46.918 1.22266 42.5859 1.22266 41.1406 1.30469C39.7422 1.37109 38.5 1.69141 37.4727 2.71484C36.4453 3.73828 36.1289 4.98047 36.0586 6.38281C35.9766 7.82812 35.9766 12.1602 36.0586 13.6055C36.125 15.0078 36.4453 16.25 37.4727 17.2734C38.5 18.2969 39.7383 18.6172 41.1406 18.6875C42.5859 18.7695 46.918 18.7695 48.3633 18.6875C49.7656 18.6211 51.0078 18.3008 52.0313 17.2734C53.0547 16.25 53.375 15.0078 53.4453 13.6055C53.5273 12.1602 53.5273 7.83203 53.4453 6.38672ZM51.5781 15.1562C51.2734 15.9219 50.6836 16.5117 49.9141 16.8203C48.7617 17.2773 46.0273 17.1719 44.7539 17.1719C43.4805 17.1719 40.7422 17.2734 39.5937 16.8203C38.8281 16.5156 38.2383 15.9258 37.9297 15.1562C37.4727 14.0039 37.5781 11.2695 37.5781 9.99609C37.5781 8.72266 37.4766 5.98437 37.9297 4.83594C38.2344 4.07031 38.8242 3.48047 39.5937 3.17187C40.7461 2.71484 43.4805 2.82031 44.7539 2.82031C46.0273 2.82031 48.7656 2.71875 49.9141 3.17187C50.6797 3.47656 51.2695 4.06641 51.5781 4.83594C52.0352 5.98828 51.9297 8.72266 51.9297 9.99609C51.9297 11.2695 52.0352 14.0078 51.5781 15.1562Z" fill="#9CA3AF"/>
</g>
</g>
<path d="M69.5 0H89.5V20H69.5V0Z" stroke="#E5E7EB"/>
<g clip-path="url(#clip3_11_316)">
<g clip-path="url(#clip4_11_316)">
<path d="M89.1875 10C89.1875 4.64844 84.8516 0.3125 79.5 0.3125C74.1484 0.3125 69.8125 4.64844 69.8125 10C69.8125 14.8352 73.3551 18.843 77.9863 19.5703V12.8004H75.5254V10H77.9863V7.86563C77.9863 5.43789 79.4316 4.09687 81.6453 4.09687C82.7055 4.09687 83.8141 4.28594 83.8141 4.28594V6.66875H82.5922C81.3891 6.66875 81.0137 7.41562 81.0137 8.18164V10H83.7004L83.2707 12.8004H81.0137V19.5703C85.6449 18.843 89.1875 14.8352 89.1875 10Z" fill="#9CA3AF"/>
</g>
</g>
<defs>
<clipPath id="clip0_11_316">
<rect width="20" height="20" fill="white"/>
</clipPath>
<clipPath id="clip1_11_316">
<rect width="17.5" height="20" fill="white" transform="translate(36)"/>
</clipPath>
<clipPath id="clip2_11_316">
<path d="M36 0H53.5V20H36V0Z" fill="white"/>
</clipPath>
<clipPath id="clip3_11_316">
<rect width="20" height="20" fill="white" transform="translate(69.5)"/>
</clipPath>
<clipPath id="clip4_11_316">
<path d="M69.5 0H89.5V20H69.5V0Z" fill="white"/>
</clipPath>
</defs>
</svg>
