<svg width="28" height="36" viewBox="0 0 28 36" fill="none" xmlns="http://www.w3.org/2000/svg">
<g clip-path="url(#clip0_11_283)">
<path d="M0.5 0H27.5V36H0.5V0Z" stroke="#E5E7EB"/>
<path d="M14 0C10.2734 0 7.25 3.02344 7.25 6.75V18C7.25 21.7266 10.2734 24.75 14 24.75C17.7266 24.75 20.75 21.7266 20.75 18V6.75C20.75 3.02344 17.7266 0 14 0ZM5 15.1875C5 14.2523 4.24766 13.5 3.3125 13.5C2.37734 13.5 1.625 14.2523 1.625 15.1875V18C1.625 24.2648 6.27969 29.4398 12.3125 30.2625V32.625H8.9375C8.00234 32.625 7.25 33.3773 7.25 34.3125C7.25 35.2477 8.00234 36 8.9375 36H14H19.0625C19.9977 36 20.75 35.2477 20.75 34.3125C20.75 33.3773 19.9977 32.625 19.0625 32.625H15.6875V30.2625C21.7203 29.4398 26.375 24.2648 26.375 18V15.1875C26.375 14.2523 25.6227 13.5 24.6875 13.5C23.7523 13.5 23 14.2523 23 15.1875V18C23 22.9711 18.9711 27 14 27C9.02891 27 5 22.9711 5 18V15.1875Z" fill="#1DB954"/>
</g>
<defs>
<clipPath id="clip0_11_283">
<rect width="27" height="36" fill="white" transform="translate(0.5)"/>
</clipPath>
</defs>
</svg>
