<svg width="36" height="36" viewBox="0 0 36 36" fill="none" xmlns="http://www.w3.org/2000/svg">
<g clip-path="url(#clip0_11_293)">
<path d="M0 0H36V36H0V0Z" stroke="#E5E7EB"/>
<path d="M18 5.625C10.5398 5.625 4.3875 11.2078 3.4875 18.4219C4.14844 18.1547 4.86562 18 5.625 18C7.48828 18 9 19.5117 9 21.375V30.375C9 32.2383 7.48828 33.75 5.625 33.75C2.51719 33.75 0 31.2328 0 28.125V27V23.625V20.25C0 10.3078 8.05781 2.25 18 2.25C27.9422 2.25 36 10.3078 36 20.25V23.625V27V28.125C36 31.2328 33.4828 33.75 30.375 33.75C28.5117 33.75 27 32.2383 27 30.375V21.375C27 19.5117 28.5117 18 30.375 18C31.1344 18 31.8516 18.1477 32.5125 18.4219C31.6125 11.2078 25.4602 5.625 18 5.625Z" fill="#1DB954"/>
</g>
<defs>
<clipPath id="clip0_11_293">
<rect width="36" height="36" fill="white"/>
</clipPath>
</defs>
</svg>
