<svg width="32" height="36" viewBox="0 0 32 36" fill="none" xmlns="http://www.w3.org/2000/svg">
<g clip-path="url(#clip0_11_298)">
<g clip-path="url(#clip1_11_298)">
<path d="M16 18C13.6131 18 11.3239 17.0518 9.63604 15.364C7.94821 13.6761 7 11.3869 7 9C7 6.61305 7.94821 4.32387 9.63604 2.63604C11.3239 0.948212 13.6131 0 16 0C18.3869 0 20.6761 0.948212 22.364 2.63604C24.0518 4.32387 25 6.61305 25 9C25 11.3869 24.0518 13.6761 22.364 15.364C20.6761 17.0518 18.3869 18 16 18ZM14.9523 25.2563L13.6445 23.0766C13.1945 22.3242 13.7359 21.375 14.6078 21.375H16H17.3852C18.257 21.375 18.7984 22.3313 18.3484 23.0766L17.0406 25.2563L19.3891 33.968L21.9203 23.6391C22.0609 23.0695 22.6094 22.6969 23.1789 22.8445C28.1078 24.082 31.75 28.5398 31.75 33.8414C31.75 35.0367 30.7797 36 29.5914 36H20.3242C20.1766 36 20.043 35.9719 19.9164 35.9227L19.9375 36H12.0625L12.0836 35.9227C11.957 35.9719 11.8164 36 11.6758 36H2.40859C1.22031 36 0.25 35.0297 0.25 33.8414C0.25 28.5328 3.89922 24.075 8.82109 22.8445C9.39063 22.7039 9.93906 23.0766 10.0797 23.6391L12.6109 33.968L14.9594 25.2563H14.9523Z" fill="#1DB954"/>
</g>
</g>
<defs>
<clipPath id="clip0_11_298">
<rect width="31.5" height="36" fill="white" transform="translate(0.25)"/>
</clipPath>
<clipPath id="clip1_11_298">
<path d="M0.25 0H31.75V36H0.25V0Z" fill="white"/>
</clipPath>
</defs>
</svg>
