<svg width="36" height="36" viewBox="0 0 36 36" fill="none" xmlns="http://www.w3.org/2000/svg">
<g clip-path="url(#clip0_11_288)">
<g clip-path="url(#clip1_11_288)">
<path d="M32.6953 0.492285C32.0344 -0.168652 30.9656 -0.168652 30.3117 0.492285L26.9297 3.86729C26.7609 4.03604 26.6273 4.23994 26.5429 4.46494L25.4601 7.34775L20.0109 12.804C16.8398 10.7368 13.0289 10.6806 10.8 12.9165C10.0265 13.6899 9.53435 14.6462 9.29529 15.7009C9.03513 16.8681 7.95232 17.8595 6.75701 17.9228C4.95701 18.0142 3.2906 18.6751 2.02498 19.9337C-1.12502 23.0907 -0.534397 28.786 3.33982 32.6603C7.21404 36.5345 12.9094 37.1251 16.0594 33.9751C17.3179 32.7165 17.9859 31.0431 18.0703 29.2431C18.1336 28.0478 19.125 26.972 20.2922 26.7048C21.3469 26.4657 22.3031 25.9665 23.0765 25.2001C25.3125 22.9642 25.2562 19.1603 23.189 15.9892L28.6453 10.5329L31.5281 9.4501C31.7531 9.36572 31.957 9.23213 32.1258 9.06338L35.5008 5.68838C36.1617 5.02744 36.1617 3.95869 35.5008 3.30479L32.6953 0.492285ZM14.625 18.0001C15.5201 18.0001 16.3785 18.3557 17.0115 18.9886C17.6444 19.6215 18 20.48 18 21.3751C18 22.2702 17.6444 23.1286 17.0115 23.7616C16.3785 24.3945 15.5201 24.7501 14.625 24.7501C13.7299 24.7501 12.8714 24.3945 12.2385 23.7616C11.6056 23.1286 11.25 22.2702 11.25 21.3751C11.25 20.48 11.6056 19.6215 12.2385 18.9886C12.8714 18.3557 13.7299 18.0001 14.625 18.0001Z" fill="#1DB954"/>
</g>
</g>
<defs>
<clipPath id="clip0_11_288">
<rect width="36" height="36" fill="white"/>
</clipPath>
<clipPath id="clip1_11_288">
<path d="M0 0H36V36H0V0Z" fill="white"/>
</clipPath>
</defs>
</svg>
