<svg width="27" height="37" viewBox="0 0 27 37" fill="none" xmlns="http://www.w3.org/2000/svg">
<path d="M0.328125 0.25H26.5781V36.25H0.328125V0.25Z" stroke="#E5E7EB"/>
<g clip-path="url(#clip0_11_260)">
<path d="M0.328125 7.6875C0.328125 6.13477 1.58789 4.875 3.14062 4.875H8.76562C10.3184 4.875 11.5781 6.13477 11.5781 7.6875V13.3125C11.5781 14.8652 10.3184 16.125 8.76562 16.125H3.14062C1.58789 16.125 0.328125 14.8652 0.328125 13.3125V7.6875ZM4.07812 8.625V12.375H7.82812V8.625H4.07812ZM0.328125 22.6875C0.328125 21.1348 1.58789 19.875 3.14062 19.875H8.76562C10.3184 19.875 11.5781 21.1348 11.5781 22.6875V28.3125C11.5781 29.8652 10.3184 31.125 8.76562 31.125H3.14062C1.58789 31.125 0.328125 29.8652 0.328125 28.3125V22.6875ZM4.07812 23.625V27.375H7.82812V23.625H4.07812ZM18.1406 4.875H23.7656C25.3184 4.875 26.5781 6.13477 26.5781 7.6875V13.3125C26.5781 14.8652 25.3184 16.125 23.7656 16.125H18.1406C16.5879 16.125 15.3281 14.8652 15.3281 13.3125V7.6875C15.3281 6.13477 16.5879 4.875 18.1406 4.875ZM22.8281 8.625H19.0781V12.375H22.8281V8.625ZM15.3281 20.8125C15.3281 20.2969 15.75 19.875 16.2656 19.875H20.0156C20.5313 19.875 20.9531 20.2969 20.9531 20.8125C20.9531 21.3281 21.375 21.75 21.8906 21.75H23.7656C24.2813 21.75 24.7031 21.3281 24.7031 20.8125C24.7031 20.2969 25.125 19.875 25.6406 19.875C26.1563 19.875 26.5781 20.2969 26.5781 20.8125V26.4375C26.5781 26.9531 26.1563 27.375 25.6406 27.375H21.8906C21.375 27.375 20.9531 26.9531 20.9531 26.4375C20.9531 25.9219 20.5313 25.5 20.0156 25.5C19.5 25.5 19.0781 25.9219 19.0781 26.4375V30.1875C19.0781 30.7031 18.6563 31.125 18.1406 31.125H16.2656C15.75 31.125 15.3281 30.7031 15.3281 30.1875V20.8125ZM21.8906 31.125C21.642 31.125 21.4035 31.0262 21.2277 30.8504C21.0519 30.6746 20.9531 30.4361 20.9531 30.1875C20.9531 29.9389 21.0519 29.7004 21.2277 29.5246C21.4035 29.3488 21.642 29.25 21.8906 29.25C22.1393 29.25 22.3777 29.3488 22.5535 29.5246C22.7294 29.7004 22.8281 29.9389 22.8281 30.1875C22.8281 30.4361 22.7294 30.6746 22.5535 30.8504C22.3777 31.0262 22.1393 31.125 21.8906 31.125ZM25.6406 31.125C25.392 31.125 25.1535 31.0262 24.9777 30.8504C24.8019 30.6746 24.7031 30.4361 24.7031 30.1875C24.7031 29.9389 24.8019 29.7004 24.9777 29.5246C25.1535 29.3488 25.392 29.25 25.6406 29.25C25.8893 29.25 26.1277 29.3488 26.3035 29.5246C26.4794 29.7004 26.5781 29.9389 26.5781 30.1875C26.5781 30.4361 26.4794 30.6746 26.3035 30.8504C26.1277 31.0262 25.8893 31.125 25.6406 31.125Z" fill="#1DB954"/>
</g>
<defs>
<clipPath id="clip0_11_260">
<path d="M0.328125 3H26.5781V33H0.328125V3Z" fill="white"/>
</clipPath>
</defs>
</svg>
