<svg width="35" height="37" viewBox="0 0 35 37" fill="none" xmlns="http://www.w3.org/2000/svg">
<path d="M0.65625 0.25H34.4062V36.25H0.65625V0.25Z" stroke="#E5E7EB"/>
<g clip-path="url(#clip0_11_263)">
<path d="M5.85352 16.1133L0.65625 25.0195V8.625C0.65625 6.55664 2.33789 4.875 4.40625 4.875H11.291C12.2871 4.875 13.2422 5.26758 13.9453 5.9707L15.498 7.52344C16.2012 8.22656 17.1562 8.61914 18.1523 8.61914H25.0312C27.0996 8.61914 28.7812 10.3008 28.7812 12.3691V14.2441H9.09375C7.75781 14.2441 6.52734 14.9531 5.85352 16.1074V16.1133ZM7.4707 17.0566C7.81055 16.4766 8.42578 16.125 9.09375 16.125H32.5312C33.2051 16.125 33.8203 16.4824 34.1543 17.0684C34.4883 17.6543 34.4883 18.3691 34.1484 18.9492L27.5859 30.1992C27.252 30.7734 26.6367 31.125 25.9687 31.125H2.53125C1.85742 31.125 1.24219 30.7676 0.908203 30.1816C0.574219 29.5957 0.574219 28.8809 0.914062 28.3008L7.47656 17.0508L7.4707 17.0566Z" fill="#1DB954"/>
</g>
<defs>
<clipPath id="clip0_11_263">
<path d="M0.65625 3H34.4062V33H0.65625V3Z" fill="white"/>
</clipPath>
</defs>
</svg>
