<svg width="30" height="37" viewBox="0 0 30 37" fill="none" xmlns="http://www.w3.org/2000/svg">
<path d="M0 0.25H30V36.25H0V0.25Z" stroke="#E5E7EB"/>
<g clip-path="url(#clip0_11_257)">
<path d="M30 18C30 18.0527 30 18.1055 30 18.1582C29.9766 20.2969 28.0312 21.75 25.8926 21.75H20.1562C18.6035 21.75 17.3438 23.0098 17.3438 24.5625C17.3438 24.7617 17.3672 24.9551 17.4023 25.1426C17.5254 25.7402 17.7832 26.3145 18.0352 26.8945C18.3926 27.7031 18.7441 28.5059 18.7441 29.3555C18.7441 31.2187 17.4785 32.9121 15.6152 32.9883C15.4102 32.9941 15.2051 33 14.9941 33C6.71484 33 0 26.2852 0 18C0 9.71484 6.71484 3 15 3C23.2852 3 30 9.71484 30 18ZM7.5 19.875C7.5 19.3777 7.30246 18.9008 6.95083 18.5492C6.59919 18.1975 6.12228 18 5.625 18C5.12772 18 4.65081 18.1975 4.29917 18.5492C3.94754 18.9008 3.75 19.3777 3.75 19.875C3.75 20.3723 3.94754 20.8492 4.29917 21.2008C4.65081 21.5525 5.12772 21.75 5.625 21.75C6.12228 21.75 6.59919 21.5525 6.95083 21.2008C7.30246 20.8492 7.5 20.3723 7.5 19.875ZM7.5 14.25C7.99728 14.25 8.47419 14.0525 8.82582 13.7008C9.17746 13.3492 9.375 12.8723 9.375 12.375C9.375 11.8777 9.17746 11.4008 8.82582 11.0492C8.47419 10.6975 7.99728 10.5 7.5 10.5C7.00272 10.5 6.52581 10.6975 6.17417 11.0492C5.82254 11.4008 5.625 11.8777 5.625 12.375C5.625 12.8723 5.82254 13.3492 6.17417 13.7008C6.52581 14.0525 7.00272 14.25 7.5 14.25ZM16.875 8.625C16.875 8.12772 16.6775 7.65081 16.3258 7.29917C15.9742 6.94754 15.4973 6.75 15 6.75C14.5027 6.75 14.0258 6.94754 13.6742 7.29917C13.3225 7.65081 13.125 8.12772 13.125 8.625C13.125 9.12228 13.3225 9.59919 13.6742 9.95083C14.0258 10.3025 14.5027 10.5 15 10.5C15.4973 10.5 15.9742 10.3025 16.3258 9.95083C16.6775 9.59919 16.875 9.12228 16.875 8.625ZM22.5 14.25C22.9973 14.25 23.4742 14.0525 23.8258 13.7008C24.1775 13.3492 24.375 12.8723 24.375 12.375C24.375 11.8777 24.1775 11.4008 23.8258 11.0492C23.4742 10.6975 22.9973 10.5 22.5 10.5C22.0027 10.5 21.5258 10.6975 21.1742 11.0492C20.8225 11.4008 20.625 11.8777 20.625 12.375C20.625 12.8723 20.8225 13.3492 21.1742 13.7008C21.5258 14.0525 22.0027 14.25 22.5 14.25Z" fill="#1DB954"/>
</g>
<defs>
<clipPath id="clip0_11_257">
<path d="M0 3H30V33H0V3Z" fill="white"/>
</clipPath>
</defs>
</svg>
